<svg width="263" height="195" xmlns="http://www.w3.org/2000/svg">
 <g id="Layer_1">
  <title>Layer 1</title>
  <path id="svg_5" d="m155.92398,43.59038c-0.79291,0 -1.20046,-0.95348 -1.20046,-2.09685c0,-0.95325 0.20375,-1.87875 0.79291,-1.87875c0.40755,0 1.02107,0.9255 1.22483,1.87875c0.40755,1.38791 0,2.09685 -0.81727,2.09685zm135.53964,54.40389c1.81405,0 2.22155,0.24453 1.20046,1.87853c-0.58917,1.14338 -1.81398,2.09663 -2.40315,2.09663c-0.61346,0 -1.22483,-0.95325 -1.22483,-2.09663c0,-1.17143 0.81733,-1.87853 2.42751,-1.87853zm-126.6491,-66.54821c-1.81398,-0.46263 -2.0178,-2.80535 0,-3.51267c1.02101,-0.21781 1.61024,0.46257 1.61024,1.87875c0,1.17129 -0.58923,1.85196 -1.61024,1.63392zm-22.61174,74.00822c2.42751,-0.68075 2.42751,-1.17003 1.61024,-2.77738c-0.61137,-1.17003 -0.81511,-2.58606 -0.40755,-3.04877c0.20375,-0.70857 1.22483,0 1.81398,1.38807c0.81727,1.87875 1.42857,2.12475 3.03881,0.95325c0.99894,-0.70724 1.81398,-1.17113 1.81398,-0.46257c0,0.46257 0.61352,0 1.40643,-0.95325c1.22489,-1.38807 1.42863,-4.4381 0.20381,-6.07216c-0.99672,-1.38807 -6.05548,-0.92535 -7.46192,0.70724c-0.81511,1.1715 -1.42863,0.92682 -2.22155,-1.16981c-1.22483,-3.48617 -1.22483,-3.97561 1.61018,-4.19342c2.42751,0 2.42751,0 0.40755,-1.41603c-1.01886,-0.68075 -2.01773,-2.09663 -2.01773,-3.02213c0,-2.34257 2.81287,-3.73063 4.03768,-2.09656c0.40755,0.6806 1.20052,1.38807 2.0178,1.38807c1.61024,0 9.29804,-7.92301 9.29804,-9.55708c0,-0.7085 0.79513,-1.17107 1.61024,-0.7085c0.99887,0.24593 2.81293,-0.46257 4.65127,-1.63407c2.6069,-1.8786 2.6069,-2.09663 1.20046,-5.14541c-0.99672,-2.09663 -2.22155,-2.80535 -5.0566,-2.80535c-3.22042,0 -4.03768,0.46279 -5.0344,3.26814c-0.40978,1.87853 -1.63453,3.26666 -2.42751,3.26666c-1.40643,0 -1.81398,-2.09537 -0.40755,-3.26666c0.6113,-0.46279 1.01886,-2.09663 1.01886,-3.7307c0,-2.5595 -0.40755,-3.02213 -3.03881,-2.34131c-2.63125,0.46257 -2.63125,0.24453 -2.0178,-3.26829c0.40755,-2.09656 0.99672,-3.97516 1.40649,-4.1932c0.40755,-0.24453 0.81505,-2.34131 0.81505,-4.43795c0,-4.19363 1.20269,-4.90088 3.42645,-1.87875c1.0188,1.634 1.63238,1.87875 2.01773,0.46257c0.40755,-0.92535 1.83613,-1.14338 4.05988,-0.68082c3.01667,0.9255 3.22042,0.68082 2.81287,-2.09663c-0.20375,-1.63384 -0.40972,-3.5126 -0.61346,-3.97516c0,-0.70746 -0.99672,-1.63407 -2.1994,-2.34153c-2.42751,-1.17107 -3.03881,-3.97516 -0.81727,-3.97516c0.61352,0 1.20263,-0.46279 1.20263,-1.38953c0,-0.70746 1.22489,-1.17003 2.83507,-0.9534c2.22376,0.24593 3.42422,-0.68045 6.46303,-5.58111c2.22376,-3.51282 3.83394,-5.39142 4.03775,-4.43816c0.20375,1.17003 1.22483,1.85063 2.2237,1.85063c1.61024,0 1.81405,-0.6806 1.22489,-3.72937c-0.20597,-2.09678 -1.22489,-4.65597 -1.83835,-5.82748c-1.81405,-2.5871 -1.81405,-5.60923 0,-4.6841c1.42857,0.92682 5.87381,-1.6326 5.87381,-3.26658c0,-0.70857 0.59138,-1.17129 1.40643,-1.17129c0.81733,0 1.20269,1.41596 1.20269,3.26806c0,2.34131 0.40755,3.26681 1.42863,2.58599c0.79291,-0.48935 1.40649,-1.87875 1.40649,-2.80402c0,-2.8055 6.46298,-7.70623 8.07315,-6.31691c0.61358,0.46293 1.22483,0 1.43092,-1.63384c0.5891,-3.26806 4.23922,-5.82748 5.8494,-4.19342c0.81733,0.6806 1.6103,0.46279 1.81627,-0.24453c0.40749,-0.92676 2.01773,-1.63407 3.83172,-1.85225c1.81398,-0.24453 4.2415,-1.17129 5.26257,-2.12453c3.83172,-3.02213 7.66572,-2.8041 9.2759,0.46419c1.02107,2.34116 1.42857,2.34116 1.42857,0.7071c0,-2.09678 0.7952,-2.34131 5.64799,-1.63384c7.68786,0.92676 8.89055,0.92676 11.72561,-0.24475c1.81398,-0.68075 2.42745,-0.46271 2.42745,1.41582c0,1.1715 0.58923,2.09685 1.40649,2.09685c0.6113,0 1.20046,-0.68082 1.20046,-1.38939c0,-1.87853 3.24484,-2.80402 6.07984,-1.87853c2.1994,0.92676 2.40315,1.17107 1.81398,7.46126c-0.20375,3.75735 0,6.31677 0.38542,6.31677c0.40749,0 0.81727,-1.63407 0.81727,-3.97538c0,-3.94873 2.22155,-5.58147 3.03881,-2.34139c0.20381,1.1701 0.79291,0.70732 1.20046,-1.14331c1.02114,-4.90213 3.24484,-2.34279 2.63125,3.02213c-0.61124,4.43795 -0.61124,4.43795 1.20275,2.80387c1.02101,-0.70732 1.81393,-2.5592 1.81393,-3.72937c0,-1.17135 0.61358,-2.56068 1.42869,-3.05011c1.61012,-0.92513 3.42639,2.58622 2.835,5.14666c-0.20375,1.17025 -0.20375,2.09678 0.38535,2.09678c0.40978,0 0.81733,-0.6806 0.81733,-1.17129c0,-0.68075 0.99887,-0.9255 2.2237,-0.46257c2.6291,0.70732 3.01445,2.58584 0.79297,3.72923c-0.58917,0.49069 -1.20269,1.63407 -1.20269,2.58746c0,1.63407 0.40972,1.63407 2.63125,0c3.62798,-2.80402 5.23815,-2.58746 5.85174,0.46257c0.40749,1.63407 1.20263,2.34264 2.01773,1.63407c0.81727,-0.24468 2.63125,0.70857 4.03775,2.34131c1.22483,1.38931 3.03881,2.55942 3.85608,2.55942c1.20269,0 1.20269,1.17143 0.79291,4.43935c-0.40749,3.51282 -0.40749,3.97538 0.81733,2.55957c1.61018,-2.31489 2.22155,-2.097 2.81293,1.16981c0.20375,1.63407 1.63232,2.80535 3.24256,3.51267c1.81398,0.46419 2.81293,1.634 2.81293,3.02339c0,1.41596 0.61124,3.04877 1.22483,3.97553c1.61024,1.63384 1.20046,6.53458 -0.61358,8.16857c-0.61124,0.48943 -1.40637,0.24475 -1.61018,-0.46257c-0.40749,-0.70872 -1.81398,-0.70872 -4.4453,0c-4.2415,1.6326 -5.0344,2.09663 -4.03768,4.21992c0.61352,1.38807 7.66788,0.9255 11.5218,-0.70857c1.20269,-0.70739 1.61024,0 1.61024,3.26814c0,2.34116 -0.40755,4.19342 -1.01886,4.19342c-0.40978,0 -0.79513,0.70724 -0.79513,1.87853c0,2.80521 0.99894,2.5592 3.63019,-0.70746c1.40421,-1.87853 2.22148,-2.34257 3.22042,-1.17107c1.01886,1.17107 1.22483,1.17107 1.22483,-0.70746c0,-1.14478 -0.40978,-2.09663 -1.02101,-2.09663c-0.38542,0 -0.7952,-0.92676 -0.7952,-1.85225c0,-1.17113 0.59138,-2.09663 1.40643,-2.09663c0.61352,0 1.42863,0.46257 1.42863,1.14338c0,0.70887 0.79513,1.634 1.81621,1.87875c1.40428,0.70872 1.81398,1.63407 1.61018,4.4381c-0.40972,5.36455 0.40762,6.99876 3.42422,6.07342c1.42863,-0.46419 2.22148,0 1.61024,0.92535c-0.18161,0.46257 0,1.63407 0.40755,2.12313c1.63453,1.38947 1.02101,4.65635 -0.79297,4.65635c-2.2237,0 -2.83507,1.17107 -1.63232,3.26792c0.81505,1.17129 1.42857,1.38807 2.22148,0.46271c1.83835,-2.34131 2.22376,-0.46271 2.42751,8.87751c0,4.68248 0.40755,8.41332 0.81511,8.41332c0.99887,0 0.61352,5.14666 -0.81511,7.24329c-0.79513,1.17003 -0.79513,2.31334 -0.20375,3.26658c1.42857,2.09685 0,8.16902 -1.81627,8.16902c-1.61012,0 -4.64899,4.43795 -4.64899,6.53473c0,2.56082 -2.6069,0 -3.22042,-2.8041c-0.6113,-2.55934 -0.6113,-2.55934 -1.02107,-0.70857c-0.38535,2.12461 1.81621,8.65933 3.65239,10.51121c1.20263,1.41619 -1.02107,3.75735 -2.63132,2.8041c-0.81733,-0.46257 -1.20269,-1.85063 -1.20269,-3.26666c0,-3.97516 -5.0566,-13.9962 -8.89055,-17.7534c-2.03987,-1.85225 -3.85392,-3.94889 -3.85392,-4.65613c0,-1.41603 -6.4652,-5.82748 -10.09317,-7.24345c-2.02001,-0.70857 -2.63132,-0.46263 -2.63132,1.41596c0,1.38807 -0.38535,1.85063 -1.20269,1.38807c-1.81398,-0.9255 -2.63125,1.1715 -1.02101,3.26814c2.2237,2.55934 1.83835,5.60923 -0.58917,4.43795c-1.63238,-0.70732 -1.83618,-0.46279 -1.22483,3.51274c0.20375,2.31467 0.61352,5.36455 0.61352,6.75262c0,1.41603 0.40749,2.34153 0.81505,2.34153c0.59145,0 0.79513,-0.46279 0.38542,-1.17003c-0.20375,-0.70872 0.20603,-1.38939 1.02101,-1.38939c0.61358,0 1.20269,0.9266 1.20269,1.85196c0,0.9534 -0.79507,1.87853 -2.2237,1.63422c-1.20046,0 -2.22155,-0.68082 -2.22155,-1.14353c0,-2.12475 -5.44418,-16.58353 -7.05436,-18.7068c-1.81405,-2.31489 -0.61137,-3.02213 -14.94609,7.95069c-2.22148,1.63407 -4.64899,5.14666 -5.87381,7.70623c-0.99894,2.5592 -2.60912,5.14666 -3.42422,5.60923c-0.81727,0.46279 -3.83394,4.19342 -6.46526,8.16879c-11.31805,17.50739 -9.47971,19.60418 -8.68673,55.35729c3.42639,27.09223 3.42639,27.09223 3.42639,27.09223c-8.07544,0 -8.07544,0 -8.07544,0c-6.66678,0 -6.66678,0 -6.66678,0c0.6113,-24.997 0.6113,-24.997 0.6113,-24.997c0.40749,-2.09523 0.61352,-6.31655 0.81733,-8.65808c0.20375,-1.38931 -5.67012,-7.46148 -5.46632,-8.84939c0,-1.17129 6.07762,2.09685 6.07762,0.92535c0.99887,-17.04484 0,-30.60505 -2.63132,-37.82178c-0.6113,-4.43816 -5.67006,-18.7054 -6.46298,-18.7054c-0.20381,0 -1.63238,-1.38931 -3.03881,-3.02339c-2.42757,-3.04863 -3.42422,-3.26681 -16.96605,-4.19342c-14.53847,-0.952 -14.53847,-0.952 -14.53847,-0.952c-3.44636,3.26681 -3.44636,3.26681 -3.44636,3.26681c-2.01773,2.12453 -4.03768,3.51267 -4.62691,3.51267c-1.22483,0 -6.28358,4.90191 -8.48299,7.70579c-0.20375,0 -0.40749,-0.24431 -0.40749,-0.46257c-0.20381,0 -0.20381,0 -0.20381,-0.24468c-0.20375,-0.6806 -0.40972,-1.38931 -0.81727,-2.09663c1.22483,-1.17129 2.2237,-1.87985 2.63125,-1.63384c0.6113,0.46257 1.20269,0 1.20269,-1.1715c0,-1.17003 -1.20269,-1.634 -4.4231,-1.17003c-3.85614,0.70746 -4.85502,0.952 -5.46632,3.72945c-0.99894,1.41596 -1.20269,3.51274 -0.6113,5.14682c-0.20603,2.09663 -0.20603,3.5126 0,3.5126c0.20375,0 0.40749,-0.46257 1.01886,-0.95325c0,0.24475 0.20375,0.49069 0.40972,0.70857c-2.01995,0.70732 -3.04103,2.8041 -2.83507,4.90073c-1.02101,0.95325 -2.01995,1.41596 -3.24471,2.12328c0,0 0,-0.24453 -0.18167,-0.24453c0.79513,-2.09663 1.20269,-4.43816 1.40643,-7.95076c0.40978,-3.94889 0.20375,-6.53473 -0.40749,-6.53473c-0.40755,0 -0.81727,0.95325 -0.81727,2.34109c0.20369,1.1715 -0.18167,2.34153 -0.99678,2.55957c-0.61352,0.24453 -1.02101,-0.21803 -1.02101,-1.38807c0,-2.80535 -0.79297,-2.80535 -2.60918,-0.24593c-0.81505,0.95325 -2.42529,2.09678 -3.83172,2.58746c-1.83835,0.6806 -2.42751,0.21781 -3.24477,-2.34153c-0.6113,-2.09663 -1.01886,-4.43935 -0.6113,-5.3647c0.20375,-1.17129 0.20375,-2.12328 -0.58917,-2.12328c-2.22376,0 -0.61352,-3.73085 2.01773,-4.43942l0.00003,-0.00006zm17.37354,-53.69533c-1.22483,-0.24453 -2.22376,-0.92535 -2.63125,-1.8786c-0.20381,-1.38931 -0.40755,-1.38931 -0.40755,0c0,0.95325 -0.81727,1.63407 -1.61024,1.8786c-1.42857,0 -1.42857,0.24468 0.20381,1.1715c0.99666,0.46257 2.01773,1.16981 2.22148,1.16981c0.18161,0 1.20269,-0.70724 2.22376,-1.16981c1.81398,-1.1715 1.81398,-1.1715 0,-1.1715l-0.00001,0zm160.16912,37.60374c0.38542,0.46279 0.79297,-0.24593 0.79297,-1.41596c0,-0.9266 -0.40755,-1.8521 -0.79297,-1.8521c-0.61346,0 -1.02101,0.46271 -1.02101,1.14338c0,0.70872 0.40755,1.66196 1.02101,2.12469zm-1.42857,2.09678c-0.20375,-0.70872 -1.20269,-1.634 -2.01995,-1.634c-0.58917,0 -0.99672,0.92528 -0.58917,1.634c0.18161,0.70732 0.99887,1.1701 1.81398,1.1701c0.79513,0 0.99887,-0.46279 0.79513,-1.1701zm-1.81398,10.50996c0.6113,0 1.42857,-0.24453 1.42857,-0.46257c0,-0.49069 -0.81727,-0.95325 -1.42857,-1.41603c-0.79513,-0.46271 -1.40649,-0.21803 -1.40649,0.46279c0,0.70857 0.61137,1.41582 1.40649,1.41582l0,-0.00001zm1.61024,-22.19135c0.81505,-0.46293 1.22476,-1.17143 1.01886,-1.85225c-0.61137,-1.6605 -4.03559,-1.6605 -4.03559,0c0,1.85225 1.20052,2.55957 3.01673,1.85225zm-11.09211,-17.50902c-1.02107,0.70872 -1.63238,2.09678 -1.42869,2.80535c1.02107,1.85084 2.22383,1.38807 3.24262,-1.63407c0.99894,-2.80535 0.59138,-3.26792 -1.81393,-1.17129zm-3.85614,35.96974c5.26251,6.28997 5.46632,6.53473 5.46632,4.4381c0,-1.17003 -0.40755,-2.12328 -1.02107,-2.12328c-0.5891,0 -1.61018,-1.1715 -2.22148,-2.55934c-0.58923,-1.38953 -1.81398,-2.80558 -2.81293,-2.80558c-1.83613,0 -1.83613,0.24601 0.58917,3.05011zm-4.23933,-11.0008c1.22266,0 1.81405,-0.46257 1.01892,-0.68067c-0.6113,-0.46271 -1.61024,-0.46271 -2.22155,0c-0.61358,0.2181 0,0.68067 1.20263,0.68067zm-5.85168,-31.74842c0.6113,0.70746 2.42529,1.63282 4.03547,2.09685c2.83513,0.70724 3.03887,0.70724 1.42863,-1.17129c-1.83613,-2.31489 -6.87053,-3.02213 -5.4641,-0.92557zm-12.317,-38.7469c-0.6113,0.6806 -0.81505,2.09663 -0.6113,3.02191c0.40755,1.87875 1.61024,0.24475 1.61024,-2.55934c0,-1.41603 -0.20381,-1.63407 -0.99894,-0.46257zm6.05548,50.42851c1.61024,1.16989 2.22376,1.16989 3.0411,-0.46404c1.61018,-2.5595 0.5891,-3.72937 -2.42757,-2.09656c-2.42751,1.14464 -2.42751,1.14464 -0.61352,2.5606l-0.00001,0zm-4.03547,-11.68161c3.03881,-2.55912 3.03881,-2.55912 0.6113,-2.55912c-1.63238,0 -2.83507,0.92513 -3.44636,2.55912c-0.38542,1.63282 -0.79513,2.55957 -0.59138,2.55957c0,0 1.61024,-1.38947 3.42645,-2.55957l-0.00001,0zm-4.4453,37.84849c1.40421,2.55957 3.83178,2.55957 3.03881,-0.24468c-0.20375,-0.9266 -0.40972,-2.09663 -0.40972,-2.34264c0,-0.21803 -0.81511,-0.21803 -1.81398,0.24601c-1.63238,0.46271 -1.63238,1.17003 -0.81511,2.34131zm-6.26145,-9.58476c1.61018,2.5595 2.42751,2.80402 4.2415,0.9255c1.20269,-1.17003 1.20269,-1.17003 0,-1.38807c-0.6113,0 -2.22155,-0.24601 -3.62798,-0.70872c-2.01995,-0.92535 -2.01995,-0.92535 -0.61352,1.17129zm-0.20375,-25.45963c1.02101,0 2.2237,-3.73063 1.61024,-4.90066c-0.79297,-1.17129 -2.42535,0.70724 -2.42535,2.80402c0,1.17135 0.40755,2.09663 0.81511,2.09663l0,0.00001zm-9.88727,15.87481c-1.22483,0.95325 -1.02101,1.1715 0.58923,1.1715c1.02101,0 2.22148,-0.46419 2.63125,-1.1715c0.61124,-1.85188 -1.40649,-1.85188 -3.22048,0zm0.20381,20.55765c0.18161,0.24601 0.79291,-0.24468 1.40643,-1.38807c0.61124,-0.95325 2.42535,-2.12453 3.83172,-2.58732c1.81398,-0.70746 2.63132,-1.85078 2.63132,-3.51274c0,-3.94726 -2.83507,-2.77746 -5.8518,2.34271c-1.22476,2.58606 -2.22148,4.68285 -2.01767,5.14541l0.00001,0zm-2.2237,-10.75479c1.81393,-2.5592 1.81393,-3.02339 0.38529,-3.7307c-1.61018,-0.9255 -2.81064,1.1715 -2.81064,4.90073c-0.20597,2.80535 -0.20597,2.80535 2.42535,-1.17003zm-3.24262,-27.5562c0.20375,1.87853 0.6113,1.634 1.81393,-1.8521c1.42869,-3.72945 1.42869,-4.22014 0.20381,-4.22014c-0.79291,0 -1.61024,0.70746 -1.81398,1.87882c-0.40755,0.92528 -0.40755,3.05003 -0.20375,4.19342l-0.00001,0zm-0.99894,-19.14169c0,0.952 0.38535,3.26681 0.79513,4.90073c0.6113,3.26806 0.6113,3.26806 1.22483,0.46271c0.79291,-2.80387 0,-6.99729 -1.22483,-6.99729c-0.59138,0 -0.79513,0.7071 -0.79513,1.63384l0,0.00001zm-14.1509,7.70476c-0.99887,1.63407 -0.99887,3.26814 -0.20597,8.16879c0.40978,3.51267 1.43085,7.02541 2.01995,7.70623c1.02107,1.17129 1.22483,0 1.42857,-7.24219c0,-8.84962 -1.02101,-11.65475 -3.24256,-8.63284l0.00001,0.00001zm1.81398,24.75232c0.20381,0.46279 0.6113,-0.46271 0.40755,-1.85203c0,-1.41603 -0.20375,-1.63407 -0.6113,-0.70732c-0.18167,0.92535 -0.18167,2.09663 0.20375,2.55934l0,0.00001zm7.2803,-21.94697c-0.20375,0.46279 -0.20375,3.73085 0.40755,7.24219c0.61352,6.07342 0.79513,6.31795 0.99894,1.87985c0.20375,-7.24345 -0.20381,-10.75604 -1.40649,-9.12205zm-6.87275,65.86747c1.22483,-2.80535 3.24262,-7.4882 4.64905,-10.29333c1.61018,-3.02235 2.63125,-6.99752 3.03881,-10.97289c0.59138,-6.2902 0.59138,-6.2902 0.59138,-6.2902c-2.42751,3.4861 -2.42751,3.4861 -2.42751,3.4861c-1.20269,1.87875 -2.0178,3.97538 -2.0178,4.68285c0,1.85196 -3.83394,13.53334 -5.03663,15.63013c-0.6113,1.16981 -1.63238,3.75735 -1.81398,5.60923c-1.02107,5.36359 0.79513,4.4381 3.01667,-1.85188l0.00001,-0.00001zm-14.33473,24.0436c0.61352,4.65597 0.61352,4.65597 2.63132,-5.36477c1.20269,-5.39149 3.01667,-14.02271 4.2415,-19.38755c1.61018,-6.77948 2.2237,-12.38871 2.2237,-20.31275c0,-10.2923 -0.20597,-10.51033 -1.81615,-9.33882c-3.65018,3.02205 -5.67012,11.43539 -6.48523,27.77275c-0.38535,8.41495 -0.79513,16.82827 -1.20263,18.68038c-0.20381,1.8786 0,5.39135 0.40749,7.95076zm0.40978,-59.76881c0.79291,2.31481 1.61024,4.19342 1.61024,4.19342c0.20375,0 1.2004,-1.41603 2.01773,-3.26792c1.02101,-1.63274 2.63125,-3.51134 3.24262,-4.19216c2.40531,-2.12453 3.01661,-8.65926 0.99887,-13.09735c-1.61024,-3.97538 -6.05548,-8.4148 -6.87281,-6.99876c-0.40749,0.46271 -0.99666,4.90213 -1.40643,10.04755c-0.81505,7.70601 -0.81505,10.04858 0.40978,13.31524l-0.00001,-0.00001zm-1.22483,-53.47839c0.40755,0.46404 0.81505,0.21803 0.81505,-0.48921c0,-0.92676 -0.40749,-1.85225 -0.81505,-2.31489c-0.61352,-0.49061 -0.99894,-0.24468 -0.99894,0.68082c0,0.70732 0.38542,1.63407 0.99894,2.12328l0,-0.00001zm-65.43426,62.79057c2.81287,0.24593 2.81287,0.24593 2.81287,0.24593c2.83507,0 5.67012,-3.02339 5.67012,-5.60923c0,-1.63407 -0.20375,-1.63407 -8.48299,5.36329zm1.20269,-6.5348c0,0.70894 0.40755,1.41603 1.02107,1.41603c0.99672,0 3.83172,-4.19342 3.22042,-4.90066c-0.61352,-0.95325 -4.2415,2.09656 -4.2415,3.48462l0,0.00001zm2.2237,-16.09262c3.03887,4.65723 4.4453,5.11994 6.05548,2.09656c1.63238,-2.80387 0.20381,-4.68263 -4.65121,-5.36344c-4.03553,-0.70872 -4.03553,-0.70872 -1.40428,3.26688l0.00001,-0.00001zm-2.2237,-13.09617c0,0.48921 1.42857,1.6326 3.03881,2.58584c7.46198,4.43816 8.89055,4.43816 8.68673,0.21826c0,-2.55957 -3.03881,-8.16895 -4.2415,-8.16895c-1.42857,0 -7.48405,4.4381 -7.48405,5.36484l0.00001,0.00001zm10.9105,33.16439c2.22155,0 2.42529,-0.70746 0.6113,-1.85084c-0.81727,-0.24593 -1.61024,0 -1.81398,0.68082c-0.40978,0.7071 0.20375,1.17003 1.20269,1.17003l-0.00001,-0.00001zm1.61024,-54.86668c-1.40649,-1.17143 -3.2227,-1.634 -4.03775,-1.17143c-1.40643,0.92676 -1.20269,1.17143 0.81505,1.87853c0.99894,0.46419 3.0411,0.92682 4.03775,1.14486c1.20269,0 1.20269,-0.46404 -0.81505,-1.85196zm-0.18161,8.41332c1.2004,0 1.40643,-0.24468 0.58917,-0.952c-0.58917,-0.21789 -1.40649,-0.21789 -1.81405,0.24475c-0.20375,0.46257 0.40755,0.9255 1.22489,0.70724l-0.00001,0zm1.2004,5.36492c-2.835,0 -2.835,0.21781 -1.2004,2.09656c2.01773,2.09663 2.6069,2.34116 3.42422,0.92535c1.40637,-1.85084 0.40749,-3.02191 -2.22383,-3.02191l0,-0.00001zm4.03781,-26.38513c-0.81733,-1.17129 -1.02107,0.9255 -0.61137,3.48484c0.20375,1.63407 1.01886,3.04988 1.42863,3.04988c0.79291,0 0.20375,-5.14666 -0.81727,-6.53473l0.00001,0zm6.46298,30.82286c-0.40749,0.21826 0.61352,1.63407 1.81621,2.8055c1.22483,1.17003 2.22148,1.63266 2.22148,0.92535c0,-1.63384 -3.42416,-4.68388 -4.03768,-3.73085l-0.00001,0zm-5.0566,1.63407c-1.81398,1.63422 -0.79291,5.82741 1.83618,6.53487c1.40643,0.46263 3.63019,2.34139 5.03663,4.19326c1.22483,1.87875 2.22148,2.58746 2.22148,1.87875c0,-2.34131 -8.07321,-13.56014 -9.0943,-12.60689zm8.27924,19.38777c-1.20263,-3.75875 -2.60912,-5.60959 -5.24043,-6.78088c-2.01773,-0.92535 -4.03768,-1.41582 -4.64899,-1.16989c-0.61352,0.24453 1.81398,3.26666 5.26257,6.77934c6.46298,6.07216 6.46298,6.07216 4.62685,1.17143zm10.72667,-35.96989c-0.40755,0 -0.81733,0.9255 -0.81733,1.85084c0,1.17129 0.40978,1.87875 0.81733,1.87875c0.58917,0 0.99894,-0.70746 0.99894,-1.87875c0,-0.92535 -0.40978,-1.85084 -0.99894,-1.85084zm-1.83613,19.14169c0,1.63384 3.44636,0.46271 4.8528,-1.63407c2.0178,-3.5126 1.81398,-4.4381 -0.81727,-4.4381c-1.81398,0 -4.03553,3.26821 -4.03553,6.07216zm5.87388,-50.42873c-0.61352,3.02213 -1.02107,5.58147 -0.81727,5.82748c0.61346,0.9255 2.22376,-6.07202 2.22376,-8.87737c0,-1.17003 -0.61358,0.24601 -1.40649,3.04988zm10.50079,47.1606c-1.02107,0 -1.81405,0.46419 -1.81405,1.38931c0,0.70746 0.58917,1.1715 1.20046,1.1715c0.81727,0 1.61024,-0.46404 1.81621,-1.1715c0.40755,-0.92513 -0.20597,-1.38931 -1.20263,-1.38931zm-2.42757,43.89378c1.20269,4.22138 3.01667,8.16879 4.03775,9.12205c1.02107,0.70746 3.03881,3.97553 4.2415,7.24345c1.20269,3.26681 2.42751,5.82623 2.63132,5.82623c0.99666,0 -1.02107,-21.483 -2.42751,-28.01898c-1.22489,-5.60797 -1.6103,-10.75479 -1.40649,-18.92358c0.18161,-6.07202 0,-11.43686 -0.40749,-11.8995c-0.20381,-0.46271 -1.61024,-0.46271 -2.83507,0c-2.22376,0.92535 -2.42751,1.63407 -2.42751,6.78074c0,3.94749 -0.40762,6.07216 -1.40649,6.99729c-2.835,2.09685 -2.63125,13.99628 0,22.87231l0.00001,0zm-5.85168,-31.28557c-0.40755,-3.51267 -0.81505,-3.97538 -3.03881,-3.97538c-2.63132,0 -2.63132,0.24468 -2.42751,5.14541c0,3.02339 0.40972,6.53598 0.61346,8.16873c0.20381,1.63407 0.99894,3.26792 1.81405,3.51267c1.61018,1.17143 3.42416,-6.99729 3.03881,-12.85142l0.00001,-0.00001zm-3.03881,23.57956c-1.81405,-2.8041 -3.03881,-5.82623 -3.22048,-6.53473c0,-0.92535 -1.02101,-3.26666 -2.22155,-5.36344c-1.22483,-2.09663 -2.63125,-4.68395 -3.24477,-5.60945c-2.01773,-3.26792 -1.61024,-0.46257 0.61352,6.77948c1.40643,4.90191 3.83178,9.34008 6.66678,13.07071c5.24037,6.31669 5.85174,5.14563 1.40649,-2.34257l0.00001,-0.00001zm-3.22048,11.46335c2.1994,0 2.0178,-0.24453 -1.02101,-3.97516c-2.0178,-2.34153 -3.42422,-4.90088 -3.42422,-6.07224c0,-0.92528 -2.63132,-4.22006 -5.67006,-7.24219c-3.01673,-3.04981 -5.8518,-6.07194 -6.25929,-6.99855c-0.40978,-1.17003 -0.61352,-1.17003 -0.61352,0.21803c0,1.41603 -0.99672,1.63384 -4.2415,0.92535c-2.22155,-0.46279 -4.03553,-0.46279 -4.03553,-0.21678c0,0.46271 0.81505,3.26681 1.63238,6.07194c1.40649,4.6562 2.01773,5.60959 6.46303,7.46029c2.81293,1.17129 7.2581,3.97531 10.09317,6.07194c2.63132,2.12475 5.85174,3.75735 7.07656,3.75735l-0.00001,0.00001zm-31.52659,7.92404c0.81727,0 2.01995,-0.46257 2.835,-1.17107c1.40649,-1.63282 0.20603,-1.63282 -2.42529,0c-1.20269,0.7085 -1.40643,0.92653 -0.40972,1.17107zm-2.22155,-5.82741c2.0178,-0.95185 8.48299,-1.8786 14.35687,-1.8786c11.08995,-0.21803 13.31365,-0.92513 8.86835,-2.34131c-1.40637,-0.46257 -4.62685,-1.63407 -7.2581,-2.8041c-4.64905,-2.09663 -14.15312,-1.38931 -15.14984,0.95222c-0.20597,0.46382 -1.22483,0.7085 -2.2237,0.46382c-2.0178,-0.70857 -4.03775,1.17018 -4.64905,4.90088c-0.81727,3.02191 0.6113,3.26792 6.05548,0.7071l0,-0.00002zm-16.14871,5.36484c0.40755,1.87875 2.42751,2.09663 4.03775,0.46257c0.99666,-0.92528 0.99666,-1.38784 0,-2.80387c-0.81727,-1.38953 -1.40643,-1.38953 -2.63125,-0.21803c-0.81727,0.68082 -1.40649,1.85084 -1.40649,2.55934zm-6.46303,16.3376c0.79297,0 1.20052,0.70746 0.79297,2.09678c-0.18167,0.95325 -0.79297,1.8786 -1.20269,1.8786c-0.6113,0 -0.99672,-0.92535 -0.99672,-1.8786c0,-1.14338 0.58917,-2.09678 1.40643,-2.09678l0.00001,0z" stroke="#000" fill="#007f00"/>
  <path id="svg_1" d="m109.79727,64.68532c0,0 13.096,2.97037 16.20636,13.23924c0,0 2.78287,3.98877 1.9644,6.11044c-0.81847,2.12163 -2.12814,2.80057 -2.45551,3.0552c0,0 1.63703,-1.95197 -3.92879,-5.09204c0,0 -2.86479,-0.5092 -3.43773,-1.0184c-0.57294,-0.5092 -9.0035,-2.20655 -10.80424,2.0368c-1.80069,4.24339 -2.20993,11.37219 -1.9644,11.71164c0.24553,0.33945 8.59427,6.78939 9.33091,8.65644c0.73664,1.86705 4.66548,5.68602 6.38434,5.6012c1.71882,-0.08483 5.81136,-0.08483 6.87541,-1.5276c1.064,-1.44277 4.17437,-1.61247 4.91101,0c0.73664,1.61243 0.49111,1.5276 0.49111,1.5276c0,0 2.61921,-0.59403 3.43773,1.5276c0.81847,2.12167 -1.2278,3.0552 -1.47333,3.0552c-0.24553,0 1.55516,-3.22495 -0.98222,-2.546c0,0 -1.47329,0.06367 -1.47329,-0.5092c0,-0.57287 0.85943,2.99158 0,3.0552c0,0 -2.88524,-3.30977 -3.43773,-1.5276c0,0 -1.84161,0.38191 -2.45551,0.5092c-0.61385,0.12729 -0.49111,0.5092 -0.49111,0.5092c0,0 -1.59607,0.63649 -0.49107,2.546c0,0 0,0.70016 -0.49111,1.01845c-0.49111,0.31824 0.30695,1.84584 2.45551,0.5092c0,0 0.55248,-0.5092 0.49111,0c-0.06142,0.5092 -2.20997,3.24615 -4.91101,-0.5092c0,0 -0.98222,-2.86429 0.49111,-3.56444c1.47329,-0.70016 -0.49111,-2.10047 -2.45551,-1.0184c0,0 -0.12279,2.0368 0.49107,2.546c0.6139,0.5092 -1.04359,0.06367 -1.47329,-0.5092c-0.42969,-0.57282 -0.98222,1.20935 -0.98222,1.5276c0,0.31824 -0.55248,1.40031 -0.98218,1.01845c-0.42974,-0.38191 -4.48132,-0.82749 -4.41995,-0.50925c0.06142,0.31829 -1.90298,1.65493 -2.45551,1.01845c-0.55248,-0.63653 -3.62184,-3.88269 -3.92879,-3.56444c-0.30695,0.31824 2.08718,3.88269 3.43773,4.58284c1.3505,0.70011 6.99819,1.14569 8.8398,-0.5092c0,0 2.82383,-0.57287 2.94662,0c0,0 3.19215,1.33664 2.94662,2.0368c-0.24558,0.70016 -0.24558,0.31824 -0.49111,0c-0.24553,-0.31829 -2.27134,-1.46398 -2.45551,-1.0184c-0.18416,0.44553 0,0.5092 0,0.5092c0,0 2.57829,0.76378 2.45551,1.0184c0,0 3.00799,1.27298 2.45551,4.0736c0,0 -0.9208,0.70016 -0.98222,0c-0.06137,-0.70016 0.36832,-2.60967 -1.47329,-2.546c0,0 -0.30695,1.0184 -1.47329,0.5092c-1.16638,-0.5092 0.67523,-1.59127 -5.40212,-1.0184c0,0 0.24553,1.20935 0.98218,1.5276c0.73664,0.31824 1.96444,0.31824 1.96444,1.5276c0,0 0.79801,1.0184 0,2.0368c0,0 -0.49111,0.31824 -0.49111,0c0,-0.31824 0.49111,-1.84584 -1.9644,-2.546c-2.45555,-0.70016 -1.96444,-0.5092 -1.96444,-0.5092c0,0 0.42974,3.0552 -0.49111,3.0552c-0.9208,0 0.6139,1.90951 2.45555,1.0184c0,0 0.18412,-0.76378 0.49107,-0.5092c0.30695,0.25462 -1.53466,3.94631 -4.91101,-0.5092c0,0 -1.10496,-2.35504 0,-3.0552c0,0 0.73664,-2.35504 -2.94662,-1.5276c0,0 -1.53466,0.25458 -1.47329,0c0.06137,-0.25462 -0.24553,1.20935 0,1.5276c0.24553,0.31824 -2.88524,-0.70016 -2.94662,-1.0184l-0.98218,0c0,0 0.57294,2.97037 0.98218,3.0552c0.40924,0.08483 -1.88252,-1.44277 -2.45551,-2.546c0,0 0,2.12163 0.49111,2.546c0.49111,0.42437 -2.20997,-2.29142 -1.9644,-2.546c0,0 0.08183,2.71575 0.98218,4.0736c0.90035,1.35785 -1.9644,-1.27298 -2.45551,-2.0368c0,0 -0.49107,0.33945 0,1.0184c0.49111,0.67895 -1.63699,-0.67895 -1.9644,-2.546c0,0 -1.39146,-1.18815 -1.9644,-1.5276c0,0 0.08183,2.88545 0.49111,3.0552c0,0 -1.14592,-0.93357 -1.47333,-2.0368c0,0 -0.65477,1.0184 -0.49111,1.5276c0,0 -1.88252,-2.20655 -2.45551,-4.0736c-0.57294,-1.86705 -0.49107,0.5092 -0.49107,0.5092c0,0 -1.14592,-0.16979 -1.96444,-3.5644c0,0 -4.74731,5.17682 -6.3843,5.6012c-1.63699,0.42433 1.9644,-2.0368 1.9644,-2.0368c0,0 -2.70104,0.84865 -2.94662,1.5276c0,0 0.24558,-0.93357 1.47333,-2.0368c1.22775,-1.10327 -1.47333,-0.5092 -1.47333,-0.5092c0,0 -0.57294,-0.16979 -0.49107,-5.60124c0,0 -3.6833,4.07364 -5.89323,4.07364c-2.20997,0 2.04627,-1.69739 2.45551,-3.05524c0.40924,-1.35785 -0.90035,-0.93352 -1.47333,-0.5092c-0.57294,0.42437 -4.82914,2.97037 -4.91101,3.56444c-0.08183,0.59403 -0.49107,-1.0184 -0.49107,-1.0184c0,0 -0.98222,0.5092 -1.96444,0.5092c-0.98218,0 2.86474,-1.86705 3.43773,-3.05524c0.57298,-1.18815 -5.32025,2.12167 -7.36652,3.56444c0,0 -1.71886,0.59403 -1.9644,0c-0.24558,-0.59407 2.94662,-2.88545 2.94662,-3.05524c0,-0.16975 1.14588,-1.61243 -0.98222,-0.5092c-2.1281,1.10327 -4.91101,0.25462 -6.87541,1.0184c-1.96444,0.76382 -4.09249,3.14007 -6.87545,3.05524c-2.78291,-0.08487 -2.78224,3.5644 -7.85758,3.5644c-2.94662,0 -1.71886,1.18815 -2.94662,1.0184c-1.22775,-0.16975 1.47329,-1.5276 1.47329,-1.5276c0,0 -2.94662,1.0184 -3.43768,1.0184c-0.49111,0 -2.70108,0.08483 2.45546,-2.0368c0,0 -3.76509,0 -2.45546,-0.5092c1.30958,-0.5092 4.5836,-1.5276 4.4199,-2.0368c-0.16375,-0.5092 -3.51955,-0.42437 -2.45551,-1.0184c1.064,-0.59407 6.87541,-2.80062 5.40212,-3.05524c-1.47333,-0.25458 -3.60143,-0.33945 -2.45551,-1.0184c1.14592,-0.67895 15.2241,-2.29138 17.18854,-4.0736c1.9644,-1.78222 7.03911,-6.95905 8.34869,-7.12879c1.30963,-0.16979 0,-1.44277 -0.98218,-1.01845c-0.98222,0.42437 -1.88257,-0.25458 -1.47333,-3.0552c0.40928,-2.80057 -4.21225,6.14137 -6.87541,3.0552c-1.39146,-1.61243 -0.32741,-2.80057 -1.9644,-2.546c-1.63699,0.25462 -1.55516,-1.86705 -1.9644,-1.0184c-0.40924,0.84865 -3.84696,6.11044 -5.40212,5.60124c-1.55516,-0.5092 -0.40924,-0.84865 -1.47333,-1.0184c-1.06405,-0.16979 -1.80069,-0.5092 -1.9644,-1.52765c-0.1637,-1.0184 -1.14588,0.67899 -1.47329,-1.0184c-0.32741,-1.69735 -0.57294,-3.81897 -1.9644,-2.0368c-1.3915,1.78222 -1.88261,0.59407 -1.96444,0c-0.08183,-0.59403 -3.02844,0.33945 -2.94657,-1.5276c0.08178,-1.86705 -2.86479,0.59407 -2.45555,-1.5276c0.40928,-2.12163 -2.48923,-0.28754 -1.9644,-2.0368c1.14592,-3.81902 -3.92879,-0.33945 -3.43768,-2.0368c0.49107,-1.69735 -2.37368,-0.33945 -1.96444,-2.0368c0.40928,-1.69735 -2.7252,-1.10781 -2.45551,-2.546c0.57294,-3.05524 -2.94657,-0.93357 -2.45551,-3.56444c0.49111,-2.63083 -2.2349,-0.01764 -1.9644,-2.0368c0.40928,-3.0552 -3.50794,-1.94572 -2.45551,-4.0736c1.63703,-3.30982 -1.68326,-1.88701 -0.98222,-3.5644c1.06405,-2.546 -6.83655,0.28245 -4.91101,-4.07364c0.90039,-2.0368 -5.34731,-3.39289 -2.45551,-5.092c4.91101,-2.88545 -7.53017,-1.44277 -1.47329,-6.1104c5.64765,-2.71575 5.99373,-2.97153 -0.98222,-2.546c-2.78291,0.16975 -6.95728,-3.81902 -2.94657,-4.07364c4.01066,-0.25458 12.19565,-2.29138 2.94657,-3.0552c-9.24904,-0.76378 -9.57644,-4.24335 -5.89319,-4.0736c3.68326,0.16975 18.08888,0.16975 14.24192,-1.0184c-3.84696,-1.18815 -21.45251,-4.09184 -14.73303,-7.12879c3.19215,-1.44277 25.68534,6.22838 19.15293,1.0184c-1.064,-0.84865 -11.45901,-3.90389 -15.22414,-8.14724c-3.76509,-4.24335 -3.02844,-4.83742 -0.98218,-4.0736c2.04627,0.76378 25.78267,11.96621 22.09955,8.14719c-0.65481,-0.67895 -14.24192,-7.38342 -16.20636,-13.23919c-1.9644,-5.85582 -0.08183,-4.32822 1.47333,-2.54604c1.55511,1.78222 23.8901,18.80121 20.13515,13.23924c-1.14592,-1.69735 -11.1316,-8.48664 -13.25975,-15.27603c-2.12814,-6.78934 -0.49111,-4.92225 0.98222,-3.0552c1.47329,1.86705 24.23211,27.30434 20.62622,18.33123c-0.81847,-2.0368 -8.02133,-8.40182 -8.8398,-14.25764c-0.81847,-5.85582 1.30958,-3.64923 2.45551,-1.5276c1.14592,2.12167 17.27041,28.51527 17.67965,23.93247c0,0 0.08187,0.08483 0.49111,0c0.40924,-0.08487 -0.32741,-2.46117 0.49111,-2.0368c0,0 0.32741,-1.86705 0.98218,-1.52765c0.65481,0.33945 1.30963,0.08487 1.47333,-2.0368c0.16366,-2.12163 4.99284,0.33945 6.3843,11.20244c0,0 0.98222,1.10188 0.98222,3.5644c0,1.27302 5.89319,7.46829 9.33091,7.12884c3.43773,-0.33945 8.34874,7.12879 9.82202,7.63799c1.47329,0.5092 4.74731,3.5644 9.82202,0.5092c5.07471,-3.0552 10.0676,-4.0736 5.89323,-4.5828c-4.17437,-0.5092 -3.35585,-2.20655 -1.47329,-2.546c1.88252,-0.33945 10.06755,-0.5092 7.36652,-2.0368c-2.70108,-1.52765 -5.03434,-9.68924 -1.47333,-7.63804c1.47333,0.84865 6.70558,8.38987 5.89323,3.0552c-0.24558,-1.61243 -3.43773,-3.5644 -2.45551,-9.16559c0.98218,-5.60124 2.34397,-1.14509 2.45551,-0.5092c0.1637,0.93352 4.13448,12.52389 4.91101,6.61959c0.24553,-1.86705 -1.80069,-4.32822 -0.98222,-11.20244c0.81847,-6.87417 1.9644,0 1.9644,0c0,0 2.33535,7.03966 1.96444,10.69324c-0.16375,1.61247 2.1281,1.0184 1.9644,-2.0368c-0.16375,-3.0552 -1.39146,-9.75967 -0.49111,-9.67484c0.90039,0.08487 3.59803,4.54506 2.94662,8.14724c-0.24558,1.35785 3.51955,2.71575 -0.49111,5.6012c-4.01062,2.88545 -8.34874,8.65644 -8.34874,8.65644c0,0 0.97034,3.72965 -3.92879,5.6012c-3.11032,1.18815 -0.49111,3.5644 -0.49111,3.5644l0.00013,0.00001z" stroke="#000" fill="#BBBBBB"/>
  <path id="svg_2" d="m174.7844,188.82535c-2.32592,-1.16919 1.94381,-1.17927 2.92339,-1.25963c2.54409,-0.04508 2.88887,-2.93203 2.62729,-4.76965c-0.37215,-0.75319 -0.00806,-2.38826 -1.31886,-2.14401c-2.61903,-0.11485 -5.20976,-0.7311 -7.48857,-1.96004c-0.13985,2.06566 -1.23823,3.95563 -1.96869,5.90931c-0.96068,0.98895 2.44217,4.51959 0.07359,2.94232c-1.53425,-1.34835 0.01107,1.40257 -1.89386,0.62804c-2.58498,-0.05041 -5.26312,0.38611 -7.7884,-0.19973c-0.84864,-0.33648 -3.50565,0.0832 -1.57004,-1.04119c1.09932,-0.18952 2.06222,0.71841 2.89303,-0.32677c1.96691,0.76866 5.09737,0.77394 5.81154,-1.64848c1.18847,-1.83341 1.91665,-3.88885 1.96102,-6.04262c-1.39175,-1.01322 -2.49417,-2.32329 -3.12715,-3.8823c-1.46373,-2.2807 -4.13495,-3.53137 -6.32493,-5.1113c-2.90576,-1.78873 -6.2515,-3.84841 -6.82081,-7.37654c-0.69217,-2.61729 0.00376,-5.48336 1.96674,-7.46841c1.32388,-1.79109 3.78516,-3.45576 3.2219,-5.91472c-1.43118,-2.40684 -4.52608,0.31146 -5.93153,1.48078c-1.69298,1.13243 -3.51462,3.87583 -5.82583,2.64522c-0.2913,-1.86284 2.3246,-3.03184 2.96831,-4.76961c1.33309,-1.95609 2.12224,-4.2296 3.2155,-6.24265c1.97748,-1.74008 5.24713,-1.75074 7.20136,0.04574c2.4938,1.83552 4.04894,4.73732 3.80475,7.75375c0.24043,2.08296 -0.70281,4.79706 1.40027,6.24312c3.03998,1.59736 6.62422,1.98055 9.71417,3.51154c3.86428,1.68661 6.76328,4.73018 10.01547,7.23492c2.00111,1.71859 4.05834,3.38643 5.96084,5.20294c-1.27179,-0.35964 -2.44795,-0.97156 -3.66546,-1.46855c1.57561,1.93717 2.28357,4.32028 2.65665,6.70105c0.61338,2.52333 2.32965,4.99015 1.4686,7.66135c-0.75087,2.22128 -3.1431,-1.3712 -4.31284,-1.99996c-1.33699,-1.1913 -2.65959,-2.66619 -4.59784,-2.87179c-0.34978,2.14198 -0.70924,4.37019 -0.31131,6.51581c0.23322,1.90022 4.24457,0.75991 3.66342,2.16669c-3.36041,-0.34663 -6.73433,-0.05451 -10.1029,-0.09601l-0.49883,-0.04863l0,0l-0.00001,0l0.00002,0.00001z" stroke="#000" fill="#FFF093"/>
  <text xml:space="preserve" text-anchor="start" font-family="Noto Sans JP" font-size="16" stroke-width="0" id="svg_3" y="30.355" x="71.29" stroke="#000" fill="#000000">Elang</text>
  <text xml:space="preserve" text-anchor="start" font-family="Noto Sans JP" font-size="16" stroke-width="0" id="svg_4" y="179.355" x="95.29" stroke="#000" fill="#000000">Bebek</text>
 </g>

</svg>