<svg width="192" height="167" xmlns="http://www.w3.org/2000/svg">
 <g>
  <title>Layer 1</title>
  <path fill="#fff" stroke="#000" d="m0,19.5487l0,0c0,-10.79645 9.84974,-19.5487 22,-19.5487l10,0l0,0l48.00001,0l89.99999,0c5.83478,0 11.43056,2.05958 15.55637,5.72568c4.12578,3.66609 6.44364,8.63839 6.44364,13.82302l0,48.87175l0,0l0,29.32304l0,0c0,10.79645 -9.84973,19.5487 -22,19.5487l-89.99999,0l-62.70608,49.70779l14.70608,-49.70779l-10,0c-12.15026,0 -22,-8.75224 -22,-19.5487l0,0l0,-29.32304l0,0l-0.00001,-48.87175l-0.00001,0z" id="svg_1"/>
 </g>

</svg>