<svg width="640" height="640" xmlns="http://www.w3.org/2000/svg" version="1">
 <g id="Layer_1">
  <title>Layer 1</title>
  <path id="svg_1" d="m395.26114,224.16878l-71.93027,-12.13777l26.50064,-13.18442c14.57529,-7.25155 27.7907,-14.27153 29.36749,-15.59995c3.91681,-3.29974 -44.86123,-75.11718 -50.97873,-75.05772c-2.68917,0.02905 -21.42778,27.83815 -41.64129,61.80462c-20.35979,34.21176 -40.62231,60.26663 -45.42968,58.41553c-56.8982,-21.90619 -103.32284,-44.07044 -103.32284,-49.3287c0,-3.59166 17.85226,-35.63089 39.67192,-71.19836l39.67195,-64.66801l108.16692,0l108.16692,0l28.23456,42.54694l28.2348,42.54694l29.45509,-14.39792c20.41889,-9.98112 28.19386,-11.41434 25.34343,-4.67266c-25.09666,59.36483 -62.54484,128.58528 -69.20143,127.91381c-4.60859,-0.46453 -40.74776,-6.30667 -80.30944,-12.98231l-0.00002,-0.00002zm-335.47277,264.85191c-27.3736,-44.91408 -51.9067,-86.96655 -54.51775,-93.45022c-2.67968,-6.65318 5.1276,-30.42721 17.92365,-54.57902l22.67115,-42.79131l-23.17558,-13.04395c-30.84192,-17.35862 -19.37775,-22.70495 62.43712,-29.11771l64.66044,-5.06806l25.36285,63.85077c13.94977,35.1179 27.14785,68.38604 29.32937,73.92964c2.27509,5.78135 -8.61326,1.93471 -25.53523,-9.02121l-29.50151,-19.10054l-20.59432,37.87783c-11.32667,20.83315 -20.75491,40.1996 -20.95131,43.03655c-0.19686,2.83695 34.56671,6.08343 77.25176,7.21416l77.60899,2.05581l5.06476,54.08984c2.78573,29.74958 4.48917,54.48746 3.78579,54.97315c-0.70334,0.4852 -37.45228,3.11565 -81.66422,5.84479l-80.38548,4.96188l-49.77049,-81.66246l0,0.00006zm306.35185,79.35828c-46.99306,-67.57941 -47.80987,-62.55271 22.03662,-135.60086l44.83671,-46.89199l-4.76205,34.26722l-4.76226,34.26724l50.24461,0c27.63448,0 50.24486,-2.10562 50.24486,-4.67883c0,-2.57363 -15.33267,-31.47869 -34.07245,-64.23429c-18.73978,-32.7556 -34.0013,-62.30219 -33.91464,-65.65913c0.19457,-7.52722 98.42602,-69.68325 103.09595,-65.23385c1.85037,1.76304 20.08013,33.16335 40.51062,69.7792l37.14683,66.57329l-49.9821,76.81542c-27.49056,42.24795 -53.9029,80.93593 -58.6938,85.97275c-4.79145,5.03682 -31.5825,11.1929 -59.5359,13.67973c-53.35617,4.74747 -51.90368,3.60401 -59.72692,47.01529c-1.36905,7.59724 -17.33351,-9.64116 -42.66608,-46.07123l0,0.00004z" stroke="#000" fill="#005b7c"/>
 </g>

</svg>