<svg width="640" height="640" xmlns="http://www.w3.org/2000/svg" version="1">
 <g id="Layer_1">
  <title>Layer 1</title>
  <g id="svg_17">
   <rect fill="#d5d80d" x="201.80204" y="106.13821" width="44" height="83" id="svg_2"/>
   <rect fill="#d5d80d" x="290.80204" y="106.13821" width="44" height="83" id="svg_3"/>
   <rect fill="#d5d80d" x="375.80204" y="106.13821" width="44" height="83" id="svg_4"/>
   <rect fill="#d5d80d" x="201.80204" y="106.13821" width="44" height="83" id="svg_5"/>
   <rect fill="#d5d80d" x="290.80204" y="-48.90767" width="44" height="238.04588" id="svg_6"/>
   <rect fill="#d5d80d" x="375.21032" y="106.13821" width="44" height="83" id="svg_7"/>
   <rect fill="#d5d80d" x="457.10658" y="-90.36997" width="49.03846" height="250.96155" id="svg_15" transform="rotate(45, 481.626, 35.1108)"/>
   <rect fill="#d5d80d" x="115.37996" y="-91.19906" width="49.03846" height="250.96155" id="svg_16" transform="rotate(-45, 139.899, 34.2817)"/>
  </g>
  <g id="svg_26" transform="rotate(90, 580.487, 318.145)">
   <rect fill="#d5d80d" x="471.52681" y="365.60616" width="44" height="83" id="svg_18"/>
   <rect fill="#d5d80d" x="560.52681" y="365.60616" width="44" height="83" id="svg_19"/>
   <rect fill="#d5d80d" x="645.52681" y="365.60616" width="44" height="83" id="svg_20"/>
   <rect fill="#d5d80d" x="471.52681" y="365.60616" width="44" height="83" id="svg_21"/>
   <rect fill="#d5d80d" x="560.52681" y="210.56028" width="44" height="238.04588" id="svg_22"/>
   <rect fill="#d5d80d" x="644.93509" y="365.60616" width="44" height="83" id="svg_23"/>
   <rect fill="#d5d80d" x="726.83136" y="169.09799" width="49.03846" height="250.96155" id="svg_24" transform="rotate(45, 751.351, 294.579)"/>
   <rect fill="#d5d80d" x="385.10473" y="168.26889" width="49.03846" height="250.96155" id="svg_25" transform="rotate(-45, 409.624, 293.75)"/>
  </g>
  <g id="svg_35" transform="rotate(-90, 54.7992, 318.145)">
   <rect fill="#d5d80d" x="-54.16128" y="365.60612" width="44" height="83" id="svg_27"/>
   <rect fill="#d5d80d" x="34.83872" y="365.60612" width="44" height="83" id="svg_28"/>
   <rect fill="#d5d80d" x="119.83872" y="365.60612" width="44" height="83" id="svg_29"/>
   <rect fill="#d5d80d" x="-54.16128" y="365.60612" width="44" height="83" id="svg_30"/>
   <rect fill="#d5d80d" x="34.83872" y="210.56023" width="44" height="238.04588" id="svg_31"/>
   <rect fill="#d5d80d" x="119.247" y="365.60612" width="44" height="83" id="svg_32"/>
   <rect fill="#d5d80d" x="201.14327" y="169.09794" width="49.03846" height="250.96155" id="svg_33" transform="rotate(45, 225.663, 294.579)"/>
   <rect fill="#d5d80d" x="-140.58335" y="168.26885" width="49.03846" height="250.96155" id="svg_34" transform="rotate(-45, -116.064, 293.75)"/>
  </g>
  <g id="svg_44" transform="rotate(180, 310.762, 596.127)">
   <rect fill="#d5d80d" x="201.80197" y="643.58777" width="44" height="83" id="svg_36"/>
   <rect fill="#d5d80d" x="290.80197" y="643.58777" width="44" height="83" id="svg_37"/>
   <rect fill="#d5d80d" x="375.80197" y="643.58777" width="44" height="83" id="svg_38"/>
   <rect fill="#d5d80d" x="201.80197" y="643.58777" width="44" height="83" id="svg_39"/>
   <rect fill="#d5d80d" x="290.80197" y="488.54189" width="44" height="238.04588" id="svg_40"/>
   <rect fill="#d5d80d" x="375.21025" y="643.58777" width="44" height="83" id="svg_41"/>
   <rect fill="#d5d80d" x="457.10651" y="447.0796" width="49.03846" height="250.96155" id="svg_42" transform="rotate(45, 481.626, 572.56)"/>
   <rect fill="#d5d80d" x="115.37989" y="446.2505" width="49.03846" height="250.96155" id="svg_43" transform="rotate(-45, 139.899, 571.731)"/>
  </g>
  <rect fill="#191919" stroke="#000" x="157.3391" y="164.58009" width="320" height="320" id="svg_1"/>
 </g>

</svg>